<svg xmlns="http://www.w3.org/2000/svg" viewBox="0 0 395.52 83.87563132599755" height="83.87563132599755" width="395.52"><g><svg viewBox="0 0 395.52 83.87563132599755" height="83.87563132599755" width="395.52"><g id="textblocktransform"><svg viewBox="0 0 395.52 83.87563132599755" height="83.87563132599755" width="395.52" id="textblock"><g><svg viewBox="0 0 395.52 83.87563132599755" height="83.87563132599755" width="395.52"><path d="M394.594 17.99C392.735 9.283 387.435 6.863 387.435 6.863 371.165-2.104 350.86-0.172 332.619 1.117 300.414 1.169 268.339 3.085 236.208 4.112 168.767 4.269 100.749 1.692 33.643 8.047 27.339 9.997-6.54 8.43 1.121 19.104 3.129 23.544 10.456 28.472 10.232 32.547 11.236 33.261 12.631 31.624 13.226 32.651 15.309 35.42 18.711 34.114 21.501 35.75 17.614 40.121 20.403 43.76 23.062 47.574 18.377 48.566 12.371 48.096 9.675 51.387 9.396 53.772 7.89 53.32 6.235 53.215 5.026 53.146 2.59 53.407 2.999 54.156 4.394 56.715-1.594 58.195 2.162 60.703-0.422 63.419 3.948 65.77 3.353 68.712 3.278 69.304 3.687 69.809 4.338 69.949 7.22 70.697 3.018 72.16 3.464 73.745 33.029 84.575 65.104 77.088 95.394 82.068 103.259 78.585 97.346 83.304 100.489 82.573 102.943 81.72 104.728 85.254 107.499 83.252 107.927 82.677 107.276 81.319 108.8 81.58 109.6 81.72 110.307 81.685 110.418 80.884 110.586 79.682 109.117 80.431 108.726 79.804 112.947 76.635 111.906 84.175 115.866 83.861 115.68 82.938 114.528 81.615 116.889 81.789 119.232 80.466 119.306 79.369 121.389 82.346 121.463 82.991 121.835 83.443 122.43 83.757 128.938 80.518 135.409 84.906 142.233 83.443 146.417 81.841 150.433 84.314 154.672 83.705 156.16 83.217 157.666 82.346 159.098 83.809 176.632 84.122 195.319 82.817 211.943 83.861 256.364 81.911 303.835 84.662 350.674 82.085 361.719 81.093 373.192 79.682 383.958 78.55 383.958 78.55 392.679 75.451 392.679 61.521S394.538 49.332 394.817 38.24C395.096 27.149 396.398 26.696 394.538 17.99Z" opacity="1" fill="#6936f5" data-fill-palette-color="tertiary"/><g transform="matrix(1,0,0,1,55.76832,26.230666666666668)"><svg width="283.98335999999995" viewBox="2.8600001335144043 -32.400001525878906 292.8500061035156 32.400001525878906" height="31.414297992664213" data-palette-color="#ffffff"><path d="M14.26-32.4L33.96 0 22.49 0 2.86-32.4 14.26-32.4ZM12.26 0L2.86 0 2.86-29.32 12.26-13.92 12.26 0ZM24.56-32.4L33.96-32.4 33.96-3.08 24.56-18.55 24.56-32.4ZM39.18 0L39.18-6.91 42.43-6.91 42.43-25.51 39.18-25.51 39.18-32.4 56.47-32.4 56.47-25.51 53.22-25.51 53.22-6.91 56.47-6.91 56.47 0 39.18 0ZM68.55 0L68.55-23.66 79.78-23.66 79.78 0 68.55 0ZM60.1-25.34L60.1-32.4 88.23-32.4 88.23-25.34 60.1-25.34ZM103.14 0L92.35 0 92.35-32.4 103.14-32.4 103.14 0ZM123.6-32.4L104.8-4.59 104.8-20.34 112.37-32.37 123.6-32.4ZM115.18-17.14L124.11 0 112.44 0 108.78-7.54 115.18-17.14ZM136.1-32.4L136.1 0 131.8 0 125.31-6.47 125.31-25.93 131.8-32.4 136.1-32.4ZM144.99-25.93L137.81-25.93 137.81-32.4 149.31-32.4 155.78-25.93 155.78-19.41 144.99-19.41 144.99-25.93ZM149.31 0L137.81 0 137.81-6.47 144.99-6.47 144.99-11.21 155.78-11.21 155.78-6.47 149.31 0ZM171.74 0L160.95 0 160.95-32.4 171.74-32.4 171.74 0ZM188.59 0L173.45 0 173.45-6.47 178.8-6.47 178.8-10.57 188.59-10.57 188.59 0ZM222.91-32.4L222.91-6.47 216.44 0 208.11 0 208.11-6.47 212.12-6.47 212.12-32.4 222.91-32.4ZM202.43-32.4L202.43-6.47 206.41-6.47 206.41 0 198.11 0 191.61-6.47 191.61-32.4 202.43-32.4ZM248.88-19.02L248.88-25.93 240.88-25.93 240.88-32.4 253.4-32.4 259.89-25.93 259.89-19.34 256.65-16.09 259.89-12.84 259.89-6.47 253.4 0 240.88 0 240.88-6.47 248.88-6.47 248.88-13.38 240.88-13.38 240.88-19.02 248.88-19.02ZM228.38 0L228.38-32.4 239.17-32.4 239.17 0 228.38 0ZM289.24 0L284.89 0 284.89-12.13 270.88-12.13 264.38-18.63 264.38-25.93 270.88-32.4 274.54-32.4 274.54-20.9 289.43-20.9 295.71-14.4 295.71-6.47 289.24 0ZM284.89-26.56L276.25-26.56 276.25-32.4 289.21-32.4 294.83-26.76 294.83-23.32 284.89-23.32 284.89-26.56ZM264.38-6.47L264.38-9.72 275.18-9.72 275.18-5.86 283.18-5.86 283.18 0 269.83 0 264.38-6.47Z" opacity="1" transform="matrix(1,0,0,1,0,0)" fill="#ffffff" class="undefined-text-0" data-fill-palette-color="quaternary" id="text-0"/></svg></g></svg></g></svg></g></svg></g><g/></svg>